<?xml version="1.0" encoding="UTF-8"?>
<!DOCTYPE svg PUBLIC "-//W3C//DTD SVG 1.1//EN" "http://www.w3.org/Graphics/SVG/1.1/DTD/svg11.dtd">
<!-- Creator: CorelDRAW X7 -->
<svg xmlns="http://www.w3.org/2000/svg" xml:space="preserve" width="210mm" height="297mm" version="1.1" style="shape-rendering:geometricPrecision; text-rendering:geometricPrecision; image-rendering:optimizeQuality; fill-rule:evenodd; clip-rule:evenodd"
viewBox="0 0 21000 29700"
 xmlns:xlink="http://www.w3.org/1999/xlink">
 <defs>
  <style type="text/css">
   <![CDATA[
    .str1 {stroke:black;stroke-width:20}
    .str0 {stroke:black;stroke-width:20}
    .str2 {stroke:yellow;stroke-width:20}
    .fil0 {fill:black}
    .fil2 {fill:#33CC33}
    .fil3 {fill:#FF6600}
    .fil1 {fill:yellow}
   ]]>
  </style>
 </defs>
 <g id="Camada_x0020_1">
  <metadata id="CorelCorpID_0Corel-Layer"/>
  <path class="fil0 str0" d="M7942 16533c207,-462 445,-789 714,-981 237,-171 261,-41 202,-321 -528,-2508 1427,-4199 3694,-3169 1540,28 2348,1777 1711,2679 -26,37 -89,132 -114,155 -57,51 -125,31 -164,-30 -28,-44 -43,-77 -78,-123 -306,-401 -627,-500 -963,-300 119,362 309,507 571,434 150,248 54,467 -285,656 14,136 31,244 50,325 36,144 30,125 159,68 666,-291 1391,-922 1765,-1195 147,-106 169,-152 326,-34 261,196 228,589 -97,1179 -38,68 -18,45 45,100 314,277 132,720 -545,1330 -309,878 -942,1334 -1899,1371 -225,379 -511,697 -859,956 -286,213 -272,101 -274,470 0,3 0,5 0,8 0,7 0,14 0,21 0,61 0,110 2,148 3,61 -1,47 62,55 24,3 48,7 71,10 770,118 1075,376 929,760 -125,66 -224,13 -296,-158 150,286 104,416 -138,391 -300,-389 -797,-583 -1490,-583 -94,0 -101,15 -88,-100 15,-136 103,-218 266,-248 -1,-39 -2,-75 -2,-107 -5,-287 42,-211 -294,-207 -241,3 -407,5 -497,6 -101,1 -80,-19 -81,83 -2,168 -3,286 -4,356 -1,52 -17,70 22,83 677,215 938,466 783,752 -46,86 -55,84 -95,52 -14,-12 -32,-28 -58,-45 -42,-28 -23,34 -37,91 -14,59 -39,102 -75,128 -80,61 -90,21 -138,-37 -364,-443 -799,-657 -1304,-643 -113,3 -132,30 -111,-119 24,-164 151,-244 381,-241 118,2 75,-56 76,-191 0,-20 0,-38 0,-52 1,-80 4,-52 -78,-95 -155,-81 -271,-155 -349,-220 -116,-97 -72,-139 -138,4 -195,424 -493,739 -895,944 -272,44 -501,-6 -685,-148 -199,44 -376,35 -529,-39 -48,-22 -93,-51 -135,-86 -76,-62 -82,-59 -83,-151 -1,-31 -1,-61 -2,-88 -1,-64 -2,-119 -2,-164 -4,-207 -29,-137 136,-270 448,-362 708,-629 784,-805 -301,10 -556,-79 -767,-269 -118,-107 -92,-84 -20,-219 306,-569 613,-1295 920,-2177z"/>
  <path class="fil1 str1" d="M13022 14085c-463,205 -874,209 -1233,14 -101,-729 34,-1245 402,-1545 621,-217 1159,-75 1614,423 303,431 414,851 331,1260 -74,370 -79,190 -284,15 -186,-159 -390,-235 -614,-227 -108,4 -121,18 -216,60z"/>
  <path class="fil1 str2" d="M11587 12652c-366,1596 -63,2667 838,3040 57,23 36,19 -22,46 -1166,554 -2511,-126 -2626,-1561 90,-1250 706,-1774 1810,-1525z"/>
  <path class="fil0 str1" d="M10775 14365c-307,-93 -400,-472 -297,-718 46,-109 131,-272 253,-304 599,-157 738,748 336,980 -87,50 -196,72 -292,42z"/>
  <path class="fil1 str1" d="M10937 13559c86,8 120,68 100,180 -14,54 -51,79 -111,74 -141,-5 -153,-256 11,-254z"/>
  <path class="fil2 str1" d="M11587 12688c-172,-77 -344,-76 -507,-72 -452,12 -850,271 -1084,669 -180,305 -226,639 -206,1030 18,355 176,742 453,1027 102,105 257,265 352,303 396,162 633,269 907,284 599,35 1012,-243 963,-219 135,-8 292,-10 472,-7 70,50 93,184 69,402 -879,702 -1788,713 -2725,31 -232,-599 -581,-880 -1048,-841 -230,-2342 646,-3374 2629,-3096 358,50 -13,194 -275,489z"/>
  <path class="fil3 str1" d="M11845 14497c282,135 542,160 778,74 138,300 310,510 519,630 -289,277 -640,252 -1053,-74 -188,-213 -269,-423 -244,-630z"/>
  <path class="fil3 str1" d="M13395 16299c80,617 59,1156 -63,1616 -111,421 -300,562 381,314 346,-127 596,-344 752,-652 -102,78 -191,130 -268,156 -136,45 -170,40 -167,-82 1,-30 1,-57 0,-79 -6,-97 -7,-63 102,-112 665,-296 1030,-665 1095,-1104 39,-258 3,-174 -138,-55 -171,143 -319,240 -446,290 -279,110 -301,66 -109,-125 491,-486 762,-912 814,-1276 46,-317 -19,-190 -171,-46 -539,512 -1133,897 -1782,1155z"/>
  <path class="fil3 str1" d="M9002 17887c-612,860 -1163,1160 -1637,891 -71,-39 -60,-27 -20,-84 450,-668 921,-2313 1170,-2592 550,-617 995,-665 1334,-141 499,1335 97,2305 -1206,2910 260,-378 380,-706 359,-984z"/>
  <path class="fil3 str1" d="M7241 20470c-131,-27 -116,-198 -52,-247 496,-374 836,-692 1022,-954 51,-72 25,-57 114,-63 915,-59 1533,-531 1852,-1415 196,-536 236,-1065 120,-1587 -20,-88 -25,-73 39,-32 1011,638 1901,616 2670,-67 411,1920 -338,3145 -2250,3673 -159,44 187,-290 -7,-441 -68,-78 -128,-71 -180,21 -123,299 -295,500 -516,604 -110,51 -125,47 -237,-6 -225,-106 -409,-328 -553,-666 -7,-18 -5,-17 -23,-25 -66,-30 -125,-16 -177,42 -9,10 -8,9 -10,23 -122,765 -449,1194 -982,1287 -187,12 -170,-69 53,-243 283,-223 445,-485 487,-789 -8,-158 -99,-121 -275,111 -363,580 -699,843 -1009,788 -28,-5 -59,-8 -86,-14z"/>
 </g>
</svg>
